# xmcd
#
# Track frame offsets: 
#        150
#        12902
#        27472
#        41677
#        53510
#        66437
#        78532
#        93145
#        107290
#        122177
#        135762
#        151157
#        165532
#        180130
#        200540
#        215237
#        227217
#        245645
#        259770
#        273172
#        286667
#        299962
#
# Disc length: 4157 seconds
#
# Revision: 6
# Processed by: cddbd v1.5.2PL0 Copyright (c) Steve Scherf et al.
# Submitted via: ExactAudioCopy v1.2
#
DISCID=33103b16
DTITLE=Ella Fitzgerald - Big Boy Blue
DYEAR=1996
DGENRE=Jazz
TTITLE0=Ella Fitzgerald and Her Savoy Eight - Big boy blue
TTITLE1=Ella Fitzgerald and Her Savoy Eight - Dedicated to you
TTITLE2=Chick Webb and His Orchestra - You showed me the way
TTITLE3=Chick Webb and His Orchestra - Crying mood
TTITLE4=Chick Webb and His Orchestra - Love is the thing so they say
TTITLE5=Ella Fitzgerald and Her Savoy Eight - All over nothing at all
TTITLE6=Ella Fitzgerald and Her Savoy Eight - If you ever should leave
TTITLE7=Ella Fitzgerald and Her Savoy Eight - Everyone's wrong but me
TTITLE8=Ella Fitzgerald and Her Savoy Eight - outh
TTITLE9=Chick Webb and His Orchestra - Just a simple melody
TTITLE10=Chick Webb and His Orchestra - I got a guy
TTITLE11=Chick Webb and His Orchestra - Holiday in harlem
TTITLE12=Chick Webb and His Orchestra - Rock it for me
TTITLE13=Chick Webb and His Orchestra - I want to be happy
TTITLE14=Chick Webb and His Orchestra - The dipsy doodle
TTITLE15=Chick Webb and His Orchestra - If dreams come true
TTITLE16=Ella Fitzgerald and Her Savoy Eight - Hallelujah
TTITLE17=Ella Fitzgerald and Her Savoy Eight - Bei mir bist du schön
TTITLE18=Ella Fitzgerald and Her Savoy Eight - It's my turn now
TTITLE19=Ella Fitzgerald and Her Savoy Eight - It's wonderful
TTITLE20=Ella Fitzgerald and Her Savoy Eight - I was doing all right
TTITLE21=Chick Webb and His Orchestra - A-tisket, a-tasket
EXTD=
EXTT0=
EXTT1=
EXTT2=
EXTT3=
EXTT4=
EXTT5=
EXTT6=
EXTT7=
EXTT8=
EXTT9=
EXTT10=
EXTT11=
EXTT12=
EXTT13=
EXTT14=
EXTT15=
EXTT16=
EXTT17=
EXTT18=
EXTT19=
EXTT20=
EXTT21=
PLAYORDER=
